HIERARCHY
ROOT Hips
{
	OFFSET -0.0000 111.0000 0.0000
	CHANNELS 6 Xposition Yposition Zposition Xrotation Yrotation Zrotation
	JOINT RightUpperLeg
	{
		OFFSET -10.5000 -8.8000 0.0000
		CHANNELS 3 Xrotation Yrotation Zrotation
		JOINT RightLowerLeg
		{
			OFFSET -0.0000 -45.6000 0.0000
			CHANNELS 3 Xrotation Yrotation Zrotation
			JOINT RightFoot
			{
				OFFSET -0.0000 -46.7000 0.0000
				CHANNELS 3 Xrotation Yrotation Zrotation
				JOINT RightToe
				{
					OFFSET -0.0000 -8.0000 12.1000
					CHANNELS 3 Xrotation Yrotation Zrotation
					End Site
					{
						OFFSET -0.0000 0.0000 2.4200
					}
				}
			}
		}
	}
	JOINT LeftUpperLeg
	{
		OFFSET 10.5000 -8.8000 0.0000
		CHANNELS 3 Xrotation Yrotation Zrotation
		JOINT LeftLowerLeg
		{
			OFFSET -0.0000 -45.6000 0.0000
			CHANNELS 3 Xrotation Yrotation Zrotation
			JOINT LeftFoot
			{
				OFFSET -0.0000 -46.7000 0.0000
				CHANNELS 3 Xrotation Yrotation Zrotation
				JOINT LeftToe
				{
					OFFSET -0.0000 -8.0000 12.1000
					CHANNELS 3 Xrotation Yrotation Zrotation
					End Site
					{
						OFFSET -0.0000 0.0000 2.4200
					}
				}
			}
		}
	}
	JOINT Spine
	{
		OFFSET -0.0000 9.7000 0.0000
		CHANNELS 3 Xrotation Yrotation Zrotation
		JOINT Spine1
		{
			OFFSET -0.0000 11.2000 0.0000
			CHANNELS 3 Xrotation Yrotation Zrotation
			JOINT Spine2
			{
				OFFSET -0.0000 12.1000 0.0000
				CHANNELS 3 Xrotation Yrotation Zrotation
				JOINT Spine3
				{
					OFFSET -0.0000 11.7000 1.2000
					CHANNELS 3 Xrotation Yrotation Zrotation
					JOINT Neck
					{
						OFFSET -0.0000 12.0000 -1.2000
						CHANNELS 3 Xrotation Yrotation Zrotation
						JOINT Head
						{
							OFFSET -0.0000 10.0000 0.0000
							CHANNELS 3 Xrotation Yrotation Zrotation
							End Site
							{
								OFFSET -0.0000 20.0000 0.0000
							}
						}
					}
					JOINT RightShoulder
					{
						OFFSET -4.9000 4.0000 -1.2000
						CHANNELS 3 Xrotation Yrotation Zrotation
						JOINT RightUpperArm
						{
							OFFSET -15.6000 0.0000 0.0000
							CHANNELS 3 Xrotation Yrotation Zrotation
							JOINT RightLowerArm
							{
								OFFSET -25.9000 0.0000 0.0000
								CHANNELS 3 Xrotation Yrotation Zrotation
								JOINT RightHand
								{
									OFFSET -28.4000 0.0000 0.0000
									CHANNELS 3 Xrotation Yrotation Zrotation
									JOINT RightThumbFinger
									{
										OFFSET -3.4000 0.3000 4.2000
										CHANNELS 3 Xrotation Yrotation Zrotation
										JOINT RightThumbFinger1
										{
											OFFSET -3.5000 0.0000 3.5000
											CHANNELS 3 Xrotation Yrotation Zrotation
											JOINT RightThumbFinger2
											{
												OFFSET -2.5000 0.0000 2.4000
												CHANNELS 3 Xrotation Yrotation Zrotation
												End Site
												{
													OFFSET -2.1450 0.0000 2.0592
												}
											}
										}
									}
									JOINT RightIndexFinger
									{
										OFFSET -4.4000 0.7000 2.6000
										CHANNELS 3 Xrotation Yrotation Zrotation
										JOINT RightIndexFinger1
										{
											OFFSET -7.0000 -0.1000 1.4000
											CHANNELS 3 Xrotation Yrotation Zrotation
											JOINT RightIndexFinger2
											{
												OFFSET -5.0000 -0.2000 0.0000
												CHANNELS 3 Xrotation Yrotation Zrotation
												JOINT RightIndexFinger3
												{
													OFFSET -2.7000 -0.2000 0.0000
													CHANNELS 3 Xrotation Yrotation Zrotation
													End Site
													{
														OFFSET -2.3814 -0.1764 0.0000
													}
												}
											}
										}
									}
									JOINT RightMiddleFinger
									{
										OFFSET -4.6000 0.7000 1.0000
										CHANNELS 3 Xrotation Yrotation Zrotation
										JOINT RightMiddleFinger1
										{
											OFFSET -7.0000 -0.1000 0.4000
											CHANNELS 3 Xrotation Yrotation Zrotation
											JOINT RightMiddleFinger2
											{
												OFFSET -5.3000 -0.3000 0.0000
												CHANNELS 3 Xrotation Yrotation Zrotation
												JOINT RightMiddleFinger3
												{
													OFFSET -3.4000 -0.3000 0.0000
													CHANNELS 3 Xrotation Yrotation Zrotation
													End Site
													{
														OFFSET -2.9988 -0.2646 0.0000
													}
												}
											}
										}
									}
									JOINT RightRingFinger
									{
										OFFSET -4.5000 0.8000 -0.1000
										CHANNELS 3 Xrotation Yrotation Zrotation
										JOINT RightRingFinger1
										{
											OFFSET -6.3000 -0.1000 -0.7000
											CHANNELS 3 Xrotation Yrotation Zrotation
											JOINT RightRingFinger2
											{
												OFFSET -4.7000 -0.4000 0.0000
												CHANNELS 3 Xrotation Yrotation Zrotation
												JOINT RightRingFinger3
												{
													OFFSET -3.2000 -0.3000 0.0000
													CHANNELS 3 Xrotation Yrotation Zrotation
													End Site
													{
														OFFSET -2.8224 -0.2646 0.0000
													}
												}
											}
										}
									}
									JOINT RightPinkyFinger
									{
										OFFSET -4.3000 0.7000 -1.6000
										CHANNELS 3 Xrotation Yrotation Zrotation
										JOINT RightPinkyFinger1
										{
											OFFSET -5.6000 -0.1000 -1.5000
											CHANNELS 3 Xrotation Yrotation Zrotation
											JOINT RightPinkyFinger2
											{
												OFFSET -3.7000 -0.2000 0.0000
												CHANNELS 3 Xrotation Yrotation Zrotation
												JOINT RightPinkyFinger3
												{
													OFFSET -2.4000 -0.1000 0.0000
													CHANNELS 3 Xrotation Yrotation Zrotation
													End Site
													{
														OFFSET -2.1168 -0.0882 0.0000
													}
												}
											}
										}
									}
								}
							}
						}
					}
					JOINT LeftShoulder
					{
						OFFSET 4.9000 4.0000 -1.2000
						CHANNELS 3 Xrotation Yrotation Zrotation
						JOINT LeftUpperArm
						{
							OFFSET 15.6000 0.0000 0.0000
							CHANNELS 3 Xrotation Yrotation Zrotation
							JOINT LeftLowerArm
							{
								OFFSET 25.9000 0.0000 0.0000
								CHANNELS 3 Xrotation Yrotation Zrotation
								JOINT LeftHand
								{
									OFFSET 28.4000 0.0000 0.0000
									CHANNELS 3 Xrotation Yrotation Zrotation
									JOINT LeftThumbFinger
									{
										OFFSET 3.4000 0.3000 4.2000
										CHANNELS 3 Xrotation Yrotation Zrotation
										JOINT LeftThumbFinger1
										{
											OFFSET 3.5000 0.0000 3.5000
											CHANNELS 3 Xrotation Yrotation Zrotation
											JOINT LeftThumbFinger2
											{
												OFFSET 2.5000 0.0000 2.5000
												CHANNELS 3 Xrotation Yrotation Zrotation
												End Site
												{
													OFFSET 2.1450 0.0000 2.1450
												}
											}
										}
									}
									JOINT LeftIndexFinger
									{
										OFFSET 4.4000 0.7000 2.6000
										CHANNELS 3 Xrotation Yrotation Zrotation
										JOINT LeftIndexFinger1
										{
											OFFSET 7.0000 -0.1000 1.4000
											CHANNELS 3 Xrotation Yrotation Zrotation
											JOINT LeftIndexFinger2
											{
												OFFSET 5.0000 -0.2000 0.0000
												CHANNELS 3 Xrotation Yrotation Zrotation
												JOINT LeftIndexFinger3
												{
													OFFSET 2.7000 -0.2000 0.0000
													CHANNELS 3 Xrotation Yrotation Zrotation
													End Site
													{
														OFFSET 2.3814 -0.1764 0.0000
													}
												}
											}
										}
									}
									JOINT LeftMiddleFinger
									{
										OFFSET 4.6000 0.7000 1.0000
										CHANNELS 3 Xrotation Yrotation Zrotation
										JOINT LeftMiddleFinger1
										{
											OFFSET 7.0000 -0.1000 0.4000
											CHANNELS 3 Xrotation Yrotation Zrotation
											JOINT LeftMiddleFinger2
											{
												OFFSET 5.3000 -0.3000 0.0000
												CHANNELS 3 Xrotation Yrotation Zrotation
												JOINT LeftMiddleFinger3
												{
													OFFSET 3.4000 -0.3000 0.0000
													CHANNELS 3 Xrotation Yrotation Zrotation
													End Site
													{
														OFFSET 2.9988 -0.2646 0.0000
													}
												}
											}
										}
									}
									JOINT LeftRingFinger
									{
										OFFSET 4.5000 0.8000 -0.1000
										CHANNELS 3 Xrotation Yrotation Zrotation
										JOINT LeftRingFinger1
										{
											OFFSET 6.3000 -0.1000 -0.7000
											CHANNELS 3 Xrotation Yrotation Zrotation
											JOINT LeftRingFinger2
											{
												OFFSET 4.7000 -0.3000 0.0000
												CHANNELS 3 Xrotation Yrotation Zrotation
												JOINT LeftRingFinger3
												{
													OFFSET 3.2000 -0.2000 0.0000
													CHANNELS 3 Xrotation Yrotation Zrotation
													End Site
													{
														OFFSET 2.8224 -0.1764 0.0000
													}
												}
											}
										}
									}
									JOINT LeftPinkyFinger
									{
										OFFSET 4.3000 0.7000 -1.6000
										CHANNELS 3 Xrotation Yrotation Zrotation
										JOINT LeftPinkyFinger1
										{
											OFFSET 5.6000 -0.1000 -1.5000
											CHANNELS 3 Xrotation Yrotation Zrotation
											JOINT LeftPinkyFinger2
											{
												OFFSET 3.7000 -0.2000 0.1000
												CHANNELS 3 Xrotation Yrotation Zrotation
												JOINT LeftPinkyFinger3
												{
													OFFSET 2.4000 -0.1000 -0.1000
													CHANNELS 3 Xrotation Yrotation Zrotation
													End Site
													{
														OFFSET 2.1168 -0.0882 -0.0882
													}
												}
											}
										}
									}
								}
							}
						}
					}
				}
			}
		}
	}
}
MOTION
Frames: 4
Frame Time: 0.016667
-0.00 111.00 0.00 -0.00 0.00 0.00 -0.00 0.00 -0.00 -0.00 0.00 -0.00 -0.00 0.00 -0.00 -0.00 0.00 -0.00 -0.00 0.00 -0.00 -0.00 0.00 -0.00 -0.00 0.00 -0.00 -0.00 0.00 -0.00 -0.00 0.00 -0.00 -0.00 0.00 -0.00 -0.00 0.00 -0.00 -0.00 0.00 -0.00 -0.00 0.00 -0.00 -0.00 0.00 -0.00 -0.00 0.00 -0.00 -0.00 0.00 -0.00 -0.00 0.00 -0.00 -0.00 0.00 -0.00 -0.00 0.00 -0.00 -0.00 0.00 -0.00 -0.00 0.00 -0.00 -0.00 0.00 -0.00 -0.00 0.00 -0.00 -0.00 0.00 -0.00 -0.00 0.00 -0.00 -0.00 0.00 -0.00 -0.00 0.00 -0.00 -0.00 0.00 -0.00 -0.00 0.00 -0.00 -0.00 0.00 -0.00 -0.00 0.00 -0.00 -0.00 0.00 -0.00 -0.00 0.00 -0.00 -0.00 0.00 -0.00 -0.00 0.00 -0.00 -0.00 0.00 -0.00 -0.00 0.00 -0.00 -0.00 0.00 -0.00 -0.00 0.00 -0.00 -0.00 0.00 -0.00 -0.00 0.00 -0.00 -0.00 0.00 -0.00 -0.00 0.00 -0.00 -0.00 0.00 -0.00 -0.00 0.00 -0.00 -0.00 0.00 -0.00 -0.00 0.00 -0.00 -0.00 0.00 -0.00 -0.00 0.00 -0.00 -0.00 0.00 -0.00 -0.00 0.00 -0.00 -0.00 0.00 -0.00 -0.00 0.00 -0.00 -0.00 0.00 -0.00 -0.00 0.00 -0.00 -0.00 0.00 -0.00 -0.00 0.00 -0.00 -0.00 0.00 -0.00 -0.00 0.00 -0.00 -0.00 0.00 -0.00 
-5.96 110.96 7.92 0.07 9.42 -0.01 1.35 -8.73 -0.94 3.25 -2.84 0.08 -4.65 -10.09 1.28 -0.00 0.00 -0.00 -0.53 -0.20 3.43 3.02 0.28 -0.00 -2.27 -0.59 -3.44 -0.00 0.00 -0.00 -0.02 -0.13 -0.50 -0.01 -0.16 -0.10 -0.01 -0.17 -0.12 -0.01 -0.17 -0.10 -1.12 4.52 1.34 -0.95 3.84 1.15 1.79 -3.83 3.69 -0.01 0.87 88.06 -10.60 -0.16 0.89 -0.00 0.00 0.00 -0.00 0.00 0.00 -0.00 0.00 0.00 -0.00 0.00 0.00 -0.00 0.00 0.00 -0.00 0.00 0.00 -0.00 0.00 0.00 -0.00 0.00 0.00 -0.00 0.00 0.00 -0.00 0.00 0.00 -0.00 0.00 0.00 -0.00 0.00 0.00 -0.00 0.00 0.00 -0.00 0.00 0.00 -0.00 0.00 0.00 -0.00 0.00 0.00 -0.00 0.00 0.00 -0.00 0.00 0.00 -0.00 0.00 0.00 -0.00 0.00 0.00 2.60 -6.56 -2.31 -2.73 7.15 -85.28 1.80 0.04 1.05 -0.00 0.00 -0.00 -0.00 0.00 -0.00 -0.00 0.00 -0.00 -0.00 0.00 -0.00 -0.00 0.00 -0.00 -0.00 0.00 -0.00 -0.00 0.00 -0.00 -0.00 0.00 -0.00 -0.00 0.00 -0.00 -0.00 0.00 -0.00 -0.00 0.00 -0.00 -0.00 0.00 -0.00 -0.00 0.00 -0.00 -0.00 0.00 -0.00 -0.00 0.00 -0.00 -0.00 0.00 -0.00 -0.00 0.00 -0.00 -0.00 0.00 -0.00 -0.00 0.00 -0.00 -0.00 0.00 -0.00 
-5.94 110.96 7.92 0.07 9.42 -0.01 1.35 -8.71 -0.96 3.24 -2.85 0.08 -4.64 -10.10 1.30 -0.00 0.00 0.00 -0.50 -0.33 3.42 2.97 0.41 -0.01 -2.24 -0.60 -3.43 -0.00 0.00 0.00 -0.02 -0.11 -0.50 -0.01 -0.16 -0.10 -0.01 -0.18 -0.12 -0.01 -0.17 -0.12 -1.13 4.50 1.34 -0.95 3.84 1.15 1.79 -3.83 3.68 -0.03 0.87 88.08 -10.60 -0.18 0.95 -0.00 0.00 0.00 -0.00 0.00 0.00 -0.00 0.00 0.00 -0.00 0.00 0.00 -0.00 0.00 0.00 -0.00 0.00 0.00 -0.00 0.00 0.00 -0.00 0.00 0.00 -0.00 0.00 0.00 -0.00 0.00 0.00 -0.00 0.00 0.00 -0.00 0.00 0.00 -0.00 0.00 0.00 -0.00 0.00 0.00 -0.00 0.00 0.00 -0.00 0.00 0.00 -0.00 0.00 0.00 -0.00 0.00 0.00 -0.00 0.00 0.00 -0.00 0.00 0.00 2.60 -6.56 -2.31 -2.74 7.15 -85.27 1.81 0.03 1.04 -0.00 0.00 -0.00 -0.00 0.00 -0.00 -0.00 0.00 -0.00 -0.00 0.00 -0.00 -0.00 0.00 -0.00 -0.00 0.00 -0.00 -0.00 0.00 -0.00 -0.00 0.00 -0.00 -0.00 0.00 -0.00 -0.00 0.00 -0.00 -0.00 0.00 -0.00 -0.00 0.00 -0.00 -0.00 0.00 -0.00 -0.00 0.00 -0.00 -0.00 0.00 -0.00 -0.00 0.00 -0.00 -0.00 0.00 -0.00 -0.00 0.00 -0.00 -0.00 0.00 -0.00 -0.00 0.00 -0.00 
-5.89 110.97 7.91 0.07 9.41 -0.01 1.39 -8.63 -0.98 3.16 -2.90 0.08 -4.60 -10.13 1.32 -0.00 0.00 0.00 -0.46 -0.48 3.39 2.90 0.57 -0.02 -2.20 -0.63 -3.40 0.00 -0.00 -0.00 -0.02 -0.12 -0.50 -0.01 -0.16 -0.10 -0.01 -0.17 -0.12 -0.02 -0.17 -0.12 -1.12 4.49 1.33 -0.96 3.83 1.15 1.80 -3.84 3.66 -0.02 0.88 88.09 -10.60 -0.18 1.00 -0.00 0.00 -0.00 -0.00 0.00 -0.00 -0.00 0.00 -0.00 -0.00 0.00 -0.00 -0.00 0.00 -0.00 -0.00 0.00 -0.00 -0.00 0.00 -0.00 -0.00 0.00 -0.00 -0.00 0.00 -0.00 -0.00 0.00 -0.00 -0.00 0.00 -0.00 -0.00 0.00 -0.00 -0.00 0.00 -0.00 -0.00 0.00 -0.00 -0.00 0.00 -0.00 -0.00 0.00 -0.00 -0.00 0.00 -0.00 -0.00 0.00 -0.00 -0.00 0.00 -0.00 -0.00 0.00 -0.00 2.60 -6.55 -2.31 -2.73 7.15 -85.27 1.83 0.04 1.04 0.00 -0.00 0.00 0.00 -0.00 0.00 0.00 -0.00 0.00 0.00 -0.00 0.00 0.00 -0.00 0.00 0.00 -0.00 0.00 0.00 -0.00 0.00 0.00 -0.00 0.00 0.00 -0.00 0.00 0.00 -0.00 0.00 0.00 -0.00 0.00 0.00 -0.00 0.00 0.00 -0.00 0.00 0.00 -0.00 0.00 0.00 -0.00 0.00 0.00 -0.00 0.00 0.00 -0.00 0.00 0.00 -0.00 0.00 0.00 -0.00 0.00 0.00 -0.00 0.00 
